<svg xmlns="http://www.w3.org/2000/svg" viewBox="0 0 64 64"><path fill="#29b6f6" d="M19.782 44.879a1.5 1.5 0 0 1-1.5-1.5l.009-7.153a1.5 1.5 0 0 1 .439-1.059L33.619 20.276a3.587 3.587 0 0 1 4.95 0l4.316 4.316a3.5 3.5 0 0 1 0 4.949L28 44.43a1.5 1.5 0 0 1-1.059.439l-7.153.01zm7.154-1.51h0zM21.29 36.848l-.006 5.029 5.029-.007L40.764 27.42a.5.5 0 0 0 .146-.354.494.494 0 0 0-.145-.352L36.448 22.4a.5.5 0 0 0-.708 0zM44.218 44.879H33.446a1.5 1.5 0 1 1 0-3H44.218a1.5 1.5 0 0 1 0 3z"/><path fill="#546e7a" d="M46.863,56.363H17.137a9.51,9.51,0,0,1-9.5-9.5V17.137a9.51,9.51,0,0,1,9.5-9.5H46.863a9.51,9.51,0,0,1,9.5,9.5V46.863a1.5,1.5,0,0,1-3,0V17.137a6.508,6.508,0,0,0-6.5-6.5H17.137a6.508,6.508,0,0,0-6.5,6.5V46.863a6.508,6.508,0,0,0,6.5,6.5H46.863a6.483,6.483,0,0,0,5.031-2.383,1.5,1.5,0,1,1,2.32,1.9A9.473,9.473,0,0,1,46.863,56.363Z"/></svg>