<svg xmlns="http://www.w3.org/2000/svg" data-name="Layer 1" viewBox="0 0 512 512"><rect width="476" height="444" x="18" y="60.5" fill="#e1e1e3" rx="40"/><path fill="#c8c5cc" d="M454.00006,60.5h-45a40.00186,40.00186,0,0,1,40,40v364a40.0019,40.0019,0,0,1-40,40h45a40.0019,40.0019,0,0,0,40-40v-364A40.00186,40.00186,0,0,0,454.00006,60.5Z"/><path fill="#eb304a" d="M494.00006,100.5v86h-476v-86a40.00186,40.00186,0,0,1,40-40h396A40.00186,40.00186,0,0,1,494.00006,100.5Z"/><path fill="#e4222e" d="M454.00006,60.5h-45a40.00186,40.00186,0,0,1,40,40v86h45v-86A40.00186,40.00186,0,0,0,454.00006,60.5Z"/><rect width="51.827" height="51.584" x="63.5" y="412.744" fill="#fff" rx="15"/><rect width="51.827" height="51.584" x="63.5" y="226.672" fill="#fff" rx="15"/><rect width="51.827" height="51.584" x="146.793" y="412.744" fill="#fff" rx="15"/><rect width="51.827" height="51.584" x="146.793" y="226.672" fill="#fff" rx="15"/><rect width="51.827" height="51.584" x="230.087" y="412.744" fill="#fff" rx="15"/><rect width="51.827" height="51.584" x="230.087" y="226.672" fill="#fff" rx="15"/><rect width="51.827" height="51.584" x="313.38" y="412.744" fill="#fff" rx="15"/><rect width="51.827" height="51.584" x="313.38" y="226.672" fill="#fff" rx="15"/><rect width="51.827" height="51.584" x="396.673" y="412.744" fill="#fff" rx="15"/><rect width="51.827" height="51.584" x="63.5" y="319.708" fill="#fff" rx="15"/><rect width="51.827" height="51.584" x="146.793" y="319.708" fill="#fff" rx="15"/><rect width="51.827" height="51.584" x="230.087" y="319.708" fill="#fff" rx="15"/><rect width="51.827" height="51.584" x="396.673" y="319.708" fill="#fff" rx="15"/><rect width="51.827" height="51.584" x="396.673" y="226.672" fill="#fff" rx="15"/><path fill="#56bc8d" d="M332.19733,378.792a7.49948,7.49948,0,0,1-5.56055-2.46826L307.81842,355.522a7.49993,7.49993,0,1,1,11.123-10.06347l12.29883,13.59472L359.39264,316.002a7.50039,7.50039,0,0,1,12.55469,8.21L338.47565,375.397a7.50078,7.50078,0,0,1-5.69238,3.37207Q332.49029,378.79249,332.19733,378.792Z"/><rect width="55" height="126" x="71" y="7.5" fill="#e1e1e3" rx="27.5"/><rect width="55" height="126" x="386" y="7.5" fill="#e1e1e3" rx="27.5"/><path fill="#dadadc" d="M413.50006 7.5a27.40806 27.40806 0 0 0-10.39648 2.03979 27.50388 27.50388 0 0 1 17.103 25.46015V106a27.504 27.504 0 0 1-17.103 25.46021A27.50238 27.50238 0 0 0 441.00006 106V34.99994A27.49986 27.49986 0 0 0 413.50006 7.5zM99.81 7.5A27.408 27.408 0 0 0 89.41349 9.53979a27.50389 27.50389 0 0 1 17.103 25.46015V106a27.504 27.504 0 0 1-17.103 25.46021A27.50238 27.50238 0 0 0 127.31 106V34.99994A27.49986 27.49986 0 0 0 99.81 7.5z"/></svg>